# xmcd CD database file
#
# Track frame offsets:
#	150
#	12055
#	34876
#	53732
#	65247
#	75607
#	88778
#	96610
#	105533
#	116326
#	129833
#	150233
#	161314
#	173347
#
# Disc length: 2503 seconds
#
# Revision: 2
# Processed by: cddbd v1.5.1PL0 Copyright (c) Steve Scherf et al.
# Submitted via: CDex 1.51
#
DISCID=9e09c50e
DTITLE=Courant d'Eire - Un Soir
DYEAR=2001
DGENRE=Celtic
TTITLE0=The fiddling ladies
TTITLE1=Le rigodon
TTITLE2=The rights of man/the pride of petravore
TTITLE3=Irish jig
TTITLE4=Tarentella
TTITLE5=Pas de place en paradis
TTITLE6=The man of the house
TTITLE7=Drowsy Maggie
TTITLE8=Porsmouth
TTITLE9=Hills of Connemara
TTITLE10=Le routier
TTITLE11=Crowley's reel
TTITLE12=Présentations
TTITLE13=Cajun (lacassine spécial)
EXTD=YEAR: 2001
EXTT0=
EXTT1=
EXTT2=
EXTT3=
EXTT4=
EXTT5=
EXTT6=
EXTT7=
EXTT8=
EXTT9=
EXTT10=
EXTT11=
EXTT12=
EXTT13=
PLAYORDER=
